<?xml version="1.0" encoding="utf-8"?>
<!-- Generator: Adobe Illustrator 26.0.2, SVG Export Plug-In . SVG Version: 6.00 Build 0)  -->
<svg version="1.1" id="Слой_1" xmlns="http://www.w3.org/2000/svg" xmlns:xlink="http://www.w3.org/1999/xlink" x="0px" y="0px"
	 viewBox="0 0 94 27" style="enable-background:new 0 0 94 27;" xml:space="preserve">
<style type="text/css">
	.st0{fill:#A7A9AC;}
	.st1{fill:#FFFFFF;}
</style>
<g id="App_Store">
	<g>
		<g>
			<path d="M90.5,26.6h-87c-1.8,0-3.2-1.4-3.2-3.1v-20c0-1.7,1.4-3.1,3.2-3.1h86.9c1.8,0,3.2,1.4,3.2,3.1v20.1
				C93.7,25.2,92.3,26.6,90.5,26.6z"/>
			<path class="st0" d="M90.5,27h-87C1.6,27,0,25.4,0,23.5V3.5C0,1.6,1.6,0,3.5,0h86.9C92.4,0,94,1.6,94,3.5v20.1
				C94,25.4,92.4,27,90.5,27z M3.5,0.7C2,0.7,0.7,1.9,0.7,3.5v20.1c0,1.5,1.3,2.8,2.9,2.8h86.9c1.6,0,2.9-1.2,2.9-2.8V3.5
				c0-1.5-1.3-2.8-2.9-2.8H3.5z"/>
		</g>
		<g>
			<path class="st1" d="M31.3,7.7l-0.4,1.3h-0.9l1.5-4.4h1.1l1.5,4.4h-0.9l-0.4-1.3H31.3z M32.6,7.1L32.3,6
				c-0.1-0.3-0.2-0.6-0.2-0.8l0,0C32,5.4,31.9,5.7,31.8,6l-0.3,1.1H32.6z"/>
			<path class="st1" d="M35.3,5.7l0.5,1.6C35.9,7.7,36,7.9,36,8.2l0,0c0-0.3,0.1-0.5,0.2-0.8l0.5-1.6h0.9l-1.3,3.2h-0.8l-1.2-3.2
				H35.3z"/>
			<path class="st1" d="M41,8.2c0,0.3,0,0.6,0,0.8h-0.7l0-0.3l0,0C40,8.8,39.7,9,39.3,9c-0.6,0-1-0.5-1-1c0-0.8,0.7-1.2,1.9-1.2v0
				c0-0.2-0.1-0.5-0.6-0.5c-0.3,0-0.6,0.1-0.9,0.3L38.5,6c0.3-0.1,0.6-0.3,1.2-0.3c1,0,1.3,0.6,1.3,1.3L41,8.2L41,8.2z M40.2,7.4
				c-0.6,0-1.2,0.1-1.2,0.6c0,0.3,0.2,0.5,0.5,0.5c0.3,0,0.6-0.2,0.6-0.4c0,0,0-0.1,0-0.2L40.2,7.4L40.2,7.4z"/>
			<path class="st1" d="M42.6,5.3c-0.3,0-0.5-0.2-0.5-0.4c0-0.3,0.2-0.4,0.5-0.4c0.3,0,0.5,0.2,0.5,0.4S42.9,5.3,42.6,5.3L42.6,5.3z
				 M42.2,8.9V5.7H43v3.2H42.2z"/>
			<path class="st1" d="M44.2,4.3H45v4.7h-0.8C44.2,8.9,44.2,4.3,44.2,4.3z"/>
			<path class="st1" d="M48.8,8.2c0,0.3,0,0.6,0,0.8h-0.7l0-0.3l0,0c-0.2,0.3-0.5,0.4-1,0.4c-0.6,0-1-0.5-1-1c0-0.8,0.7-1.2,1.9-1.2
				v0c0-0.2-0.1-0.5-0.6-0.5c-0.3,0-0.6,0.1-0.9,0.3L46.3,6c0.3-0.1,0.6-0.3,1.2-0.3c1,0,1.3,0.6,1.3,1.3L48.8,8.2L48.8,8.2z
				 M48,7.4c-0.6,0-1.2,0.1-1.2,0.6c0,0.3,0.2,0.5,0.5,0.5c0.3,0,0.6-0.2,0.6-0.4c0,0,0-0.1,0-0.2L48,7.4L48,7.4z"/>
			<path class="st1" d="M49.9,4.3h0.8v1.9l0,0c0.2-0.3,0.6-0.5,1-0.5c0.8,0,1.4,0.6,1.4,1.6c0,1.1-0.7,1.7-1.5,1.7
				c-0.4,0-0.8-0.2-1-0.5l0,0l0,0.5h-0.7c0-0.2,0-0.6,0-0.9L49.9,4.3L49.9,4.3z M50.8,7.6c0,0.1,0,0.1,0,0.2
				c0.1,0.3,0.4,0.5,0.7,0.5c0.5,0,0.8-0.4,0.8-1.1c0-0.5-0.3-1-0.8-1c-0.3,0-0.6,0.3-0.7,0.6c0,0,0,0.1,0,0.2L50.8,7.6L50.8,7.6z"
				/>
			<path class="st1" d="M54.2,4.3H55v4.7h-0.8V4.3z"/>
			<path class="st1" d="M56.8,7.5c0,0.6,0.5,0.8,1,0.8c0.4,0,0.6,0,0.9-0.1l0.1,0.5C58.5,8.9,58.1,9,57.7,9C56.6,9,56,8.4,56,7.4
				c0-0.9,0.6-1.7,1.6-1.7c1.1,0,1.4,0.8,1.4,1.6c0,0.2,0,0.3,0,0.3L56.8,7.5L56.8,7.5z M58.3,7c0-0.3-0.1-0.8-0.7-0.8
				c-0.5,0-0.7,0.5-0.8,0.8H58.3z"/>
			<path class="st1" d="M63.1,9c-0.9,0-1.6-0.6-1.6-1.6c0-1.1,0.7-1.7,1.7-1.7c1,0,1.6,0.7,1.6,1.6C64.8,8.5,64,9,63.1,9L63.1,9z
				 M63.2,8.4C63.6,8.4,64,8,64,7.3c0-0.5-0.2-1.1-0.8-1.1c-0.6,0-0.8,0.5-0.8,1.1C62.3,8,62.6,8.4,63.2,8.4L63.2,8.4z"/>
			<path class="st1" d="M65.8,6.7c0-0.4,0-0.7,0-1h0.7l0,0.5l0,0c0.1-0.3,0.5-0.5,1-0.5c0.6,0,1.2,0.4,1.2,1.4v1.9h-0.8V7.1
				c0-0.5-0.2-0.8-0.6-0.8c-0.3,0-0.6,0.2-0.6,0.5c0,0.1,0,0.2,0,0.3v1.9h-0.8L65.8,6.7L65.8,6.7z"/>
			<path class="st1" d="M72.6,4.9v0.8h0.8v0.6h-0.8v1.4c0,0.4,0.1,0.6,0.4,0.6c0.1,0,0.2,0,0.3,0v0.6C73.2,8.9,73,9,72.7,9
				c-0.3,0-0.6-0.1-0.7-0.3c-0.2-0.2-0.3-0.5-0.3-0.9V6.3h-0.5V5.7h0.5V5.1L72.6,4.9z"/>
			<path class="st1" d="M74.3,4.3h0.8v1.9l0,0c0.1-0.2,0.3-0.3,0.4-0.4c0.2-0.1,0.3-0.1,0.6-0.1c0.6,0,1.2,0.4,1.2,1.4v1.9h-0.8V7.1
				c0-0.5-0.2-0.8-0.6-0.8c-0.3,0-0.6,0.2-0.6,0.5c0,0.1,0,0.2,0,0.3v1.9h-0.8V4.3z"/>
			<path class="st1" d="M79.1,7.5c0,0.6,0.5,0.8,1,0.8c0.4,0,0.6,0,0.9-0.1l0.1,0.5C80.8,8.9,80.4,9,79.9,9c-1.1,0-1.7-0.6-1.7-1.6
				c0-0.9,0.6-1.7,1.6-1.7c1.1,0,1.4,0.8,1.4,1.6c0,0.2,0,0.3,0,0.3L79.1,7.5L79.1,7.5z M80.5,7c0-0.3-0.1-0.8-0.7-0.8
				c-0.5,0-0.7,0.5-0.8,0.8H80.5z"/>
		</g>
		<g>
			<g>
				<path class="st1" d="M21,13.2c0-2.2,1.9-3.2,1.9-3.3c-1-1.5-2.7-1.7-3.3-1.7C18.3,8,16.9,9,16.2,9c-0.7,0-1.8-0.8-2.9-0.8
					c-1.5,0-2.9,0.9-3.7,2.2C8,13.1,9.2,17,10.8,19.2c0.8,1.1,1.6,2.2,2.8,2.2c1.1,0,1.6-0.7,2.9-0.7c1.3,0,1.8,0.7,2.9,0.7
					c1.2,0,2-1.1,2.7-2.1c0.9-1.2,1.2-2.4,1.3-2.5C23.4,16.7,21,15.8,21,13.2"/>
				<path class="st1" d="M18.8,6.8C19.4,6,19.8,5,19.7,4c-0.9,0-2,0.6-2.6,1.3C16.5,5.9,16,7,16.1,8C17.1,8.1,18.1,7.5,18.8,6.8"/>
			</g>
			<g>
				<path class="st1" d="M37.4,21.2h-1.6l-0.9-2.7h-3l-0.8,2.7h-1.6l3-9h1.9L37.4,21.2z M34.7,17.4L33.9,15
					c-0.1-0.3-0.3-0.8-0.5-1.7h0c-0.1,0.4-0.3,1-0.4,1.7l-0.8,2.4H34.7z"/>
				<path class="st1" d="M45.1,17.9c0,1.1-0.3,2-0.9,2.6c-0.6,0.6-1.3,0.8-2,0.8c-0.9,0-1.5-0.3-1.9-0.9h0v3.4h-1.5v-7
					c0-0.7,0-1.4,0-2.1H40l0.1,1h0c0.5-0.8,1.3-1.2,2.2-1.2c0.8,0,1.4,0.3,2,0.9C44.8,16,45.1,16.8,45.1,17.9 M43.5,17.9
					c0-0.6-0.1-1.1-0.4-1.6c-0.3-0.4-0.7-0.6-1.3-0.6c-0.3,0-0.7,0.1-1,0.3c-0.3,0.3-0.5,0.5-0.6,0.9c0,0.2-0.1,0.3-0.1,0.4v1.1
					c0,0.5,0.1,0.9,0.4,1.2c0.3,0.3,0.7,0.5,1.2,0.5c0.6,0,1-0.2,1.3-0.6C43.4,19.1,43.5,18.6,43.5,17.9"/>
				<path class="st1" d="M52.7,17.9c0,1.1-0.3,2-0.9,2.6c-0.6,0.6-1.2,0.8-2,0.8c-0.9,0-1.5-0.3-1.9-0.9h0v3.4h-1.5v-7
					c0-0.7,0-1.4,0-2.1h1.3l0.1,1h0c0.5-0.8,1.3-1.2,2.2-1.2c0.8,0,1.4,0.3,2,0.9C52.5,16,52.7,16.8,52.7,17.9 M51.2,17.9
					c0-0.6-0.1-1.1-0.4-1.6c-0.3-0.4-0.7-0.6-1.3-0.6c-0.3,0-0.7,0.1-1,0.3c-0.3,0.3-0.5,0.5-0.6,0.9c0,0.2-0.1,0.3-0.1,0.4v1.1
					c0,0.5,0.1,0.9,0.4,1.2c0.3,0.3,0.7,0.5,1.2,0.5c0.6,0,1-0.2,1.3-0.6C51.1,19.1,51.2,18.6,51.2,17.9"/>
				<path class="st1" d="M61.3,18.7c0,0.8-0.3,1.4-0.8,1.9c-0.6,0.5-1.4,0.8-2.5,0.8c-1,0-1.8-0.2-2.4-0.5l0.3-1.2
					c0.6,0.4,1.4,0.6,2.2,0.6c0.6,0,1-0.1,1.3-0.4c0.3-0.3,0.5-0.6,0.5-1c0-0.4-0.1-0.7-0.4-0.9c-0.3-0.3-0.7-0.5-1.3-0.7
					c-1.6-0.6-2.4-1.5-2.4-2.6c0-0.8,0.3-1.3,0.9-1.8c0.6-0.5,1.3-0.7,2.2-0.7c0.9,0,1.6,0.1,2.1,0.4l-0.4,1.2
					c-0.5-0.3-1.1-0.4-1.8-0.4c-0.5,0-1,0.1-1.2,0.4c-0.3,0.2-0.4,0.5-0.4,0.8c0,0.3,0.1,0.6,0.4,0.9c0.3,0.2,0.7,0.5,1.3,0.7
					c0.8,0.3,1.4,0.7,1.8,1.1C61.1,17.5,61.3,18,61.3,18.7"/>
				<path class="st1" d="M66.2,15.8h-1.6v3.2c0,0.8,0.3,1.2,0.9,1.2c0.3,0,0.5,0,0.6-0.1l0,1.1c-0.3,0.1-0.7,0.2-1.2,0.2
					c-0.6,0-1-0.2-1.4-0.5c-0.3-0.3-0.5-0.9-0.5-1.8v-3.3h-1v-1.1h1v-1.2l1.5-0.4v1.6h1.6V15.8z"/>
				<path class="st1" d="M73.6,17.9c0,1-0.3,1.8-0.9,2.5c-0.6,0.7-1.4,1-2.5,1c-1,0-1.8-0.3-2.3-1c-0.6-0.6-0.9-1.4-0.9-2.4
					c0-1,0.3-1.9,0.9-2.5c0.6-0.6,1.4-1,2.4-1c1,0,1.8,0.3,2.4,1C73.4,16.1,73.6,16.9,73.6,17.9 M72.1,17.9c0-0.6-0.1-1.1-0.4-1.6
					c-0.3-0.5-0.7-0.8-1.3-0.8c-0.6,0-1,0.3-1.3,0.8c-0.3,0.4-0.4,1-0.4,1.6c0,0.6,0.1,1.1,0.4,1.6c0.3,0.5,0.8,0.8,1.3,0.8
					s1-0.3,1.3-0.8C71.9,19,72.1,18.5,72.1,17.9"/>
				<path class="st1" d="M78.4,15.9c-0.1,0-0.3,0-0.5,0c-0.5,0-0.9,0.2-1.2,0.6c-0.3,0.3-0.4,0.8-0.4,1.3v3.4h-1.5v-4.5
					c0-0.8,0-1.4,0-2.1h1.3l0,1.3h0c0.2-0.4,0.4-0.8,0.7-1c0.3-0.3,0.7-0.3,1.1-0.3c0.1,0,0.3,0,0.4,0V15.9z"/>
				<path class="st1" d="M85.1,17.6c0,0.3,0,0.5,0,0.7h-4.4c0,0.6,0.2,1.1,0.6,1.5c0.4,0.3,0.9,0.5,1.5,0.5c0.6,0,1.3-0.1,1.8-0.3
					l0.2,1c-0.6,0.3-1.4,0.4-2.2,0.4c-1,0-1.9-0.3-2.4-0.9c-0.6-0.6-0.9-1.4-0.9-2.4c0-1,0.3-1.8,0.8-2.4c0.6-0.7,1.3-1.1,2.3-1.1
					c1,0,1.7,0.3,2.2,1.1C84.9,16.1,85.1,16.8,85.1,17.6 M83.7,17.2c0-0.4-0.1-0.8-0.3-1.1c-0.3-0.4-0.6-0.6-1.2-0.6
					c-0.5,0-0.9,0.2-1.2,0.6c-0.3,0.3-0.4,0.7-0.4,1.1L83.7,17.2L83.7,17.2z"/>
			</g>
		</g>
	</g>
</g>
</svg>
