<?xml version="1.0" encoding="utf-8"?>
<!-- Generator: Adobe Illustrator 26.0.2, SVG Export Plug-In . SVG Version: 6.00 Build 0)  -->
<svg version="1.1" id="Слой_1" xmlns="http://www.w3.org/2000/svg" xmlns:xlink="http://www.w3.org/1999/xlink" x="0px" y="0px"
	 viewBox="0 0 94 27" style="enable-background:new 0 0 94 27;" xml:space="preserve">
<style type="text/css">
	.st0{fill:#A7A9AC;}
	.st1{fill:#FFFFFF;}
	.st2{fill:#5BC9F4;}
	.st3{fill:url(#SVGID_1_);}
	.st4{fill:url(#SVGID_00000138561630946180378550000014333814421467587249_);}
	.st5{fill:url(#SVGID_00000097459941034985315080000002298989090023630997_);}
</style>
<g id="Google_Play">
	<g>
		<g>
			<path d="M90.5,26.7h-87c-1.8,0-3.2-1.4-3.2-3.1V3.5c0-1.7,1.4-3.1,3.2-3.1h86.9c1.8,0,3.2,1.4,3.2,3.1v20.1
				C93.7,25.3,92.3,26.7,90.5,26.7z"/>
			<path class="st0" d="M90.5,27h-87C1.6,27,0,25.4,0,23.5V3.5C0,1.6,1.6,0,3.5,0h86.9C92.4,0,94,1.6,94,3.5v20.1
				C94,25.5,92.4,27,90.5,27z M3.5,0.7C2,0.7,0.7,1.9,0.7,3.5v20.1c0,1.5,1.3,2.8,2.9,2.8h86.9c1.6,0,2.9-1.2,2.9-2.8V3.5
				c0-1.5-1.3-2.8-2.9-2.8C90.5,0.7,3.5,0.7,3.5,0.7z"/>
		</g>
		<g>
			<path class="st1" d="M47.4,14.8c-1.6,0-3,1.2-3,2.9c0,1.6,1.3,2.9,3,2.9c1.6,0,3-1.2,3-2.9C50.4,16,49.1,14.8,47.4,14.8z
				 M47.4,19.4c-0.9,0-1.7-0.7-1.7-1.7c0-1.1,0.8-1.7,1.7-1.7c0.9,0,1.7,0.7,1.7,1.7C49.1,18.7,48.3,19.4,47.4,19.4z M41,14.8
				c-1.6,0-3,1.2-3,2.9c0,1.6,1.3,2.9,3,2.9c1.6,0,3-1.2,3-2.9C43.9,16,42.6,14.8,41,14.8z M41,19.4c-0.9,0-1.7-0.7-1.7-1.7
				c0-1.1,0.8-1.7,1.7-1.7c0.9,0,1.7,0.7,1.7,1.7C42.6,18.7,41.9,19.4,41,19.4z M33.3,15.7v1.2h3c-0.1,0.7-0.3,1.2-0.7,1.6
				c-0.4,0.4-1.1,0.9-2.3,0.9c-1.9,0-3.3-1.4-3.3-3.2s1.4-3.2,3.3-3.2c1,0,1.7,0.4,2.2,0.9l0.9-0.8c-0.7-0.7-1.7-1.2-3.2-1.2
				c-2.5,0-4.7,2-4.7,4.5c0,2.5,2.1,4.5,4.7,4.5c1.4,0,2.4-0.4,3.2-1.3c0.8-0.8,1.1-1.9,1.1-2.9c0-0.3,0-0.5-0.1-0.8L33.3,15.7
				L33.3,15.7z M64.8,16.6c-0.3-0.6-1-1.9-2.5-1.9c-1.5,0-2.8,1.2-2.8,2.9c0,1.6,1.3,2.9,2.9,2.9c1.3,0,2.1-0.8,2.5-1.3l-1-0.7
				c-0.3,0.5-0.8,0.8-1.5,0.8c-0.6,0-1.1-0.3-1.4-0.9l3.9-1.6L64.8,16.6z M60.7,17.6c0-1.1,0.9-1.7,1.6-1.7c0.5,0,1,0.3,1.1,0.6
				L60.7,17.6z M57.5,20.4h1.3v-8.5h-1.3V20.4z M55.4,15.4L55.4,15.4c-0.3-0.3-0.9-0.6-1.6-0.6c-1.5,0-2.9,1.3-2.9,2.9
				c0,1.6,1.3,2.9,2.9,2.9c0.7,0,1.3-0.3,1.6-0.7h0v0.4c0,1.1-0.6,1.7-1.6,1.7c-0.8,0-1.3-0.5-1.5-1l-1.1,0.5
				c0.3,0.8,1.2,1.7,2.6,1.7c1.5,0,2.8-0.9,2.8-3V15h-1.3L55.4,15.4L55.4,15.4z M53.9,19.4c-0.9,0-1.6-0.7-1.6-1.7
				c0-1,0.7-1.8,1.6-1.8c0.9,0,1.6,0.8,1.6,1.8C55.5,18.7,54.8,19.4,53.9,19.4z M70.8,11.9h-3.1v8.5H69v-3.2h1.8
				c1.4,0,2.9-1,2.9-2.6S72.3,11.9,70.8,11.9z M70.9,16H69v-2.9h1.9c1,0,1.5,0.8,1.5,1.4C72.4,15.2,71.8,16,70.9,16z M78.9,14.8
				c-1,0-1.9,0.4-2.3,1.3l1.2,0.5c0.3-0.5,0.7-0.6,1.2-0.6c0.7,0,1.3,0.4,1.4,1.1v0.1c-0.2-0.1-0.7-0.3-1.3-0.3
				c-1.3,0-2.5,0.7-2.5,1.9c0,1.1,1,1.9,2.2,1.9c0.9,0,1.3-0.4,1.6-0.8h0v0.7h1.3v-3.2C81.5,15.6,80.4,14.8,78.9,14.8z M78.8,19.4
				c-0.4,0-1-0.2-1-0.7c0-0.7,0.7-0.9,1.4-0.9c0.6,0,0.8,0.1,1.2,0.3C80.2,18.9,79.5,19.4,78.8,19.4z M86.1,15l-1.5,3.7h0L83,15
				h-1.4l2.3,5.1L82.6,23H84l3.6-8H86.1z M74.4,20.4h1.3v-8.5h-1.3V20.4z"/>
			<g>
				<path class="st2" d="M7.3,5.2C7.1,5.4,7,5.7,7,6.1v15c0,0.4,0.1,0.8,0.3,1l0,0l8.6-8.4v-0.1v-0.1L7.3,5.2L7.3,5.2z"/>
				
					<linearGradient id="SVGID_1_" gradientUnits="userSpaceOnUse" x1="21.7068" y1="13.3315" x2="4.9089" y2="13.3315" gradientTransform="matrix(1 0 0 -1 0 27)">
					<stop  offset="0" style="stop-color:#FEE000"/>
					<stop  offset="0.1941" style="stop-color:#FCCF0B"/>
					<stop  offset="0.5469" style="stop-color:#FAB318"/>
					<stop  offset="0.8279" style="stop-color:#F9A21B"/>
					<stop  offset="1" style="stop-color:#F99B1C"/>
				</linearGradient>
				<path class="st3" d="M18.9,16.5L16,13.7v-0.1v-0.1l2.9-2.8l0,0l3.4,1.9c1,0.5,1,1.4,0,1.9L18.9,16.5L18.9,16.5z"/>
				
					<linearGradient id="SVGID_00000029019888137322145320000000412577157317640885_" gradientUnits="userSpaceOnUse" x1="17.3028" y1="11.9209" x2="1.6344" y2="-3.7475" gradientTransform="matrix(1 0 0 -1 0 27)">
					<stop  offset="0" style="stop-color:#EF4547"/>
					<stop  offset="1" style="stop-color:#C6186D"/>
				</linearGradient>
				<path style="fill:url(#SVGID_00000029019888137322145320000000412577157317640885_);" d="M18.9,16.5L16,13.6L7.3,22
					c0.3,0.3,0.9,0.4,1.4,0L18.9,16.5"/>
				
					<linearGradient id="SVGID_00000066474112502834880610000006070763866019220147_" gradientUnits="userSpaceOnUse" x1="1.5649" y1="30.6063" x2="14.3577" y2="17.8135" gradientTransform="matrix(1 0 0 -1 0 27)">
					<stop  offset="0" style="stop-color:#279E6F"/>
					<stop  offset="0.3168" style="stop-color:#4DAB6D"/>
					<stop  offset="0.7398" style="stop-color:#6ABA6A"/>
					<stop  offset="1" style="stop-color:#74C169"/>
				</linearGradient>
				<path style="fill:url(#SVGID_00000066474112502834880610000006070763866019220147_);" d="M18.9,10.7L8.8,5.1
					c-0.6-0.3-1.1-0.3-1.4,0l8.6,8.4L18.9,10.7z"/>
			</g>
		</g>
		<g>
			<path class="st1" d="M32,5.6c-0.3-0.2-0.6-0.4-1-0.4c-0.9,0-1.5,0.7-1.5,1.5s0.6,1.5,1.5,1.5c0.7,0,1.3-0.4,1.3-1.1h-1.2V6.7h1.8
				c0,1.4-0.8,2.1-1.9,2.1s-2.1-0.9-2.1-2c0-1.1,0.9-2.1,2.1-2.1c0.5,0,1,0.2,1.4,0.5L32,5.6z"/>
			<path class="st1" d="M36.1,4.8v0.5h-1.9v1.3h1.6v0.5h-1.6v1.2h1.9v0.5h-2.5v-4C33.7,4.8,36.1,4.8,36.1,4.8z"/>
			<path class="st1" d="M39.7,4.8v0.5h-1.3v3.5h-0.6V5.3h-1.3V4.8H39.7z"/>
			<path class="st1" d="M42.3,4.8v4h-0.6v-4H42.3z"/>
			<path class="st1" d="M46,4.8v0.5h-1.3v3.5h-0.6V5.3H43V4.8H46z"/>
			<path class="st1" d="M50,4.8c1.2,0,2.1,0.9,2.1,2.1c0,1.1-0.9,2-2.1,2c-1.2,0-2.1-0.9-2.1-2C47.9,5.7,48.8,4.8,50,4.8z M50,8.3
				c0.9,0,1.5-0.7,1.5-1.5S50.8,5.3,50,5.3c-0.9,0-1.5,0.7-1.5,1.5C48.5,7.7,49.1,8.3,50,8.3z"/>
			<path class="st1" d="M55.3,8.8l-1.9-3v3h-0.6v-4h0.6l1.9,3v-3h0.6v4H55.3z"/>
		</g>
	</g>
</g>
<g id="App_Store">
</g>
</svg>
