<?xml version="1.0" encoding="utf-8"?>
<!-- Generator: Adobe Illustrator 26.0.2, SVG Export Plug-In . SVG Version: 6.00 Build 0)  -->
<svg version="1.1" id="Слой_1" xmlns="http://www.w3.org/2000/svg" xmlns:xlink="http://www.w3.org/1999/xlink" x="0px" y="0px"
	 viewBox="0 0 94 27" style="enable-background:new 0 0 94 27;" xml:space="preserve">
<style type="text/css">
	.st0{fill:#FFFFFF;}
	.st1{font-family:'SegoePro';}
	.st2{font-size:7.7623px;}
	.st3{fill:#0F8139;}
	.st4{clip-path:url(#SVGID_00000143607584625974288210000010292425366463825046_);fill:#FFFFFF;}
	.st5{fill:#12100B;}
	.st6{clip-path:url(#SVGID_00000160895777871635504910000014232625054821722278_);fill:#FFFFFF;}
</style>
<g>
	<text transform="matrix(0.9043 0 0 1 24.9229 10.5239)"><tspan x="0" y="0" class="st0 st1 st2">D</tspan><tspan x="3.9" y="0" class="st0 st1 st2">o</tspan></text>
	<text transform="matrix(0.9043 0 0 1 33.3682 10.5239)" class="st0 st1 st2">w</text>
	<text transform="matrix(0.9043 0 0 1 38.373 10.5239)" class="st0 st1 st2">n</text>
	<text transform="matrix(0.9043 0 0 1 42.2197 10.5239)"><tspan x="0" y="0" class="st0 st1 st2">l</tspan><tspan x="3.8" y="0" class="st0 st1 st2">o</tspan></text>
	<text transform="matrix(0.9043 0 0 1 47.7012 10.5239)" class="st0 st1 st2">a</text>
	<text transform="matrix(0.9043 0 0 1 51.085 10.5239)" class="st0 st1 st2">d</text>
	<text transform="matrix(0.9043 0 0 1 55.0439 10.5239)" class="st0 st1 st2"> </text>
	<text transform="matrix(0.9043 0 0 1 56.3916 10.5239)" class="st0 st1 st2">f</text>
	<text transform="matrix(0.9043 0 0 1 58.4561 10.5239)" class="st0 st1 st2">r</text>
	<text transform="matrix(0.9043 0 0 1 60.6172 10.5239)"><tspan x="0" y="0" class="st0 st1 st2">o</tspan><tspan x="3.9" y="0" class="st0 st1 st2">m</tspan></text>
	<polyline class="st3" points="94,27 94,0 0,0 0,27 	"/>
	<g>
		<defs>
			<polyline id="SVGID_1_" points="94,27 94,0 0,0 0,27 			"/>
		</defs>
		<clipPath id="SVGID_00000140010954143629570260000005442168314942135204_">
			<use xlink:href="#SVGID_1_"  style="overflow:visible;"/>
		</clipPath>
		<path style="clip-path:url(#SVGID_00000140010954143629570260000005442168314942135204_);fill:#FFFFFF;" d="M12.3,5.1
			c0,0.2,0,0.3,0.1,0.6c-0.7,0.3-1,0.6-1,1.7v0.7l-0.5,0.1V7.4C10.9,5.7,11.5,5.4,12.3,5.1 M13.7,4.7c0,0.2,0.1,0.3,0.1,0.5
			C15,5.1,15,5.6,15,6.8v0.4l0.5-0.1V6.8C15.5,5,15.2,4.5,13.7,4.7 M8.7,8.7V6.2c0-1.5,0.7-2,2-2.3c2-0.5,2.1,0.9,2.1,1.8v2.1
			l0.5-0.1V5.7c0-1.7-0.5-3-2.7-2.4C9.5,3.6,8.3,4,8.3,6.2v2.6L8.7,8.7z M14.5,15.1h-3.7v-3l3.7-0.6V15.1z M14.5,19.3l-3.7-0.6v-3.2
			h3.7V19.3z M10.4,15.1H7.5v-2.5l2.9-0.5V15.1z M10.4,18.7l-2.9-0.5v-2.7h2.9V18.7z M17.9,7.3L4.6,10.2v10.6l13.2,2.9l2.6-1.1V8.4
			L17.9,7.3z"/>
	</g>
	<text transform="matrix(0.9043 0 0 1 24.9229 10.5239)"><tspan x="0" y="0" class="st0 st1 st2">D</tspan><tspan x="3.9" y="0" class="st0 st1 st2">o</tspan></text>
	<text transform="matrix(0.9043 0 0 1 33.3682 10.5239)" class="st0 st1 st2">w</text>
	<text transform="matrix(0.9043 0 0 1 38.373 10.5239)" class="st0 st1 st2">n</text>
	<text transform="matrix(0.9043 0 0 1 42.2197 10.5239)"><tspan x="0" y="0" class="st0 st1 st2">l</tspan><tspan x="3.8" y="0" class="st0 st1 st2">o</tspan></text>
	<text transform="matrix(0.9043 0 0 1 47.7012 10.5239)" class="st0 st1 st2">a</text>
	<text transform="matrix(0.9043 0 0 1 51.085 10.5239)" class="st0 st1 st2">d</text>
	<text transform="matrix(0.9043 0 0 1 55.0439 10.5239)" class="st0 st1 st2"> </text>
	<text transform="matrix(0.9043 0 0 1 56.3916 10.5239)" class="st0 st1 st2">f</text>
	<text transform="matrix(0.9043 0 0 1 58.4561 10.5239)" class="st0 st1 st2">r</text>
	<text transform="matrix(0.9043 0 0 1 60.6172 10.5239)"><tspan x="0" y="0" class="st0 st1 st2">o</tspan><tspan x="3.9" y="0" class="st0 st1 st2">m</tspan></text>
	<polyline class="st5" points="94,27 94,0 0,0 0,27 	"/>
	<g>
		<defs>
			<polyline id="SVGID_00000044856017357852732640000016731933681762264238_" points="94,27 94,0 0,0 0,27 			"/>
		</defs>
		<clipPath id="SVGID_00000178925143134001383970000013306479454715652754_">
			<use xlink:href="#SVGID_00000044856017357852732640000016731933681762264238_"  style="overflow:visible;"/>
		</clipPath>
		<path style="clip-path:url(#SVGID_00000178925143134001383970000013306479454715652754_);fill:#FFFFFF;" d="M12.3,5.1
			c0,0.2,0,0.3,0.1,0.6c-0.7,0.3-1,0.6-1,1.7v0.7l-0.5,0.1V7.4C10.9,5.7,11.5,5.4,12.3,5.1 M13.7,4.7c0,0.2,0.1,0.3,0.1,0.5
			C15,5.1,15,5.6,15,6.8v0.4l0.5-0.1V6.8C15.5,5,15.2,4.5,13.7,4.7 M8.7,8.7V6.2c0-1.5,0.7-2,2-2.3c2-0.5,2.1,0.9,2.1,1.8v2.1
			l0.5-0.1V5.7c0-1.7-0.5-3-2.7-2.4C9.5,3.6,8.3,4,8.3,6.2v2.6L8.7,8.7z M14.5,15.1h-3.7v-3l3.7-0.6V15.1z M14.5,19.3l-3.7-0.6v-3.2
			h3.7V19.3z M10.4,15.1H7.5v-2.5l2.9-0.5V15.1z M10.4,18.7l-2.9-0.5v-2.7h2.9V18.7z M17.9,7.3L4.6,10.2v10.6l13.2,2.9l2.6-1.1V8.4
			L17.9,7.3z"/>
		<path style="clip-path:url(#SVGID_00000178925143134001383970000013306479454715652754_);fill:#FFFFFF;" d="M29.5,7.7
			c0,0.5-0.1,1-0.3,1.4c-0.2,0.4-0.5,0.7-0.9,1c-0.4,0.2-0.9,0.3-1.4,0.3h-1.3V5.1H27C28.7,5.1,29.5,5.9,29.5,7.7 M28.9,7.7
			c0-1.4-0.7-2.1-2-2.1h-0.8v4.2h0.7c0.6,0,1.1-0.2,1.5-0.6C28.7,8.9,28.9,8.4,28.9,7.7 M33.5,8.5c0,0.6-0.2,1.1-0.5,1.5
			c-0.3,0.4-0.7,0.6-1.3,0.6c-0.5,0-0.9-0.2-1.2-0.5c-0.3-0.4-0.5-0.8-0.5-1.4c0-0.6,0.2-1.1,0.5-1.5c0.3-0.4,0.7-0.6,1.3-0.6
			c0.5,0,0.9,0.2,1.2,0.5C33.4,7.4,33.5,7.9,33.5,8.5 M33,8.5c0-0.5-0.1-0.8-0.3-1.1C32.5,7.2,32.2,7,31.8,7c-0.4,0-0.6,0.1-0.8,0.4
			c-0.2,0.3-0.3,0.6-0.3,1.1c0,0.5,0.1,0.8,0.3,1.1c0.2,0.3,0.5,0.4,0.8,0.4c0.4,0,0.6-0.1,0.8-0.4C32.9,9.4,33,9,33,8.5 M38.7,6.6
			l-1,3.8h-0.6l-0.7-2.7c0-0.1,0-0.2-0.1-0.4h0c0,0.1,0,0.2-0.1,0.3l-0.8,2.7H35l-1-3.8h0.6l0.7,2.9c0,0.1,0,0.2,0,0.3h0
			c0-0.1,0-0.2,0.1-0.4l0.8-2.9h0.5l0.7,2.9c0,0.1,0,0.2,0,0.3h0c0-0.1,0-0.2,0.1-0.3l0.7-2.9H38.7z M42.3,10.4h-0.6V8.3
			c0-0.8-0.3-1.2-0.8-1.2c-0.3,0-0.5,0.1-0.7,0.3c-0.2,0.2-0.3,0.5-0.3,0.9v2.2h-0.6V6.6h0.6v0.6h0c0.3-0.5,0.6-0.7,1.1-0.7
			c0.4,0,0.7,0.1,0.9,0.4c0.2,0.3,0.3,0.7,0.3,1.2V10.4z M43.8,10.4h-0.6V4.8h0.6V10.4z M48.1,8.5c0,0.6-0.2,1.1-0.5,1.5
			c-0.3,0.4-0.7,0.6-1.3,0.6c-0.5,0-0.9-0.2-1.2-0.5c-0.3-0.4-0.5-0.8-0.5-1.4c0-0.6,0.2-1.1,0.5-1.5c0.3-0.4,0.7-0.6,1.3-0.6
			c0.5,0,0.9,0.2,1.2,0.5C48,7.4,48.1,7.9,48.1,8.5 M47.5,8.5c0-0.5-0.1-0.8-0.3-1.1C47.1,7.2,46.8,7,46.4,7c-0.4,0-0.6,0.1-0.8,0.4
			c-0.2,0.3-0.3,0.6-0.3,1.1c0,0.5,0.1,0.8,0.3,1.1c0.2,0.3,0.5,0.4,0.8,0.4c0.4,0,0.6-0.1,0.8-0.4C47.4,9.4,47.5,9,47.5,8.5
			 M51.4,10.4h-0.6V9.8h0c-0.2,0.5-0.6,0.7-1.1,0.7c-0.3,0-0.6-0.1-0.8-0.3c-0.2-0.2-0.3-0.5-0.3-0.8c0-0.7,0.4-1.1,1.1-1.2l1-0.2
			c0-0.6-0.2-1-0.7-1c-0.4,0-0.8,0.2-1.1,0.5V6.9c0.1-0.1,0.3-0.2,0.5-0.2c0.2-0.1,0.5-0.1,0.7-0.1c0.8,0,1.2,0.5,1.2,1.4V10.4z
			 M50.9,8.5L50,8.6c-0.3,0-0.5,0.1-0.6,0.2c-0.1,0.1-0.2,0.3-0.2,0.5c0,0.2,0.1,0.3,0.2,0.5c0.1,0.1,0.3,0.2,0.5,0.2
			c0.3,0,0.5-0.1,0.7-0.3c0.2-0.2,0.3-0.5,0.3-0.8V8.5z M55.4,10.4h-0.6V9.8h0c-0.3,0.5-0.7,0.7-1.2,0.7c-0.4,0-0.8-0.2-1-0.5
			c-0.3-0.3-0.4-0.8-0.4-1.4c0-0.6,0.1-1.1,0.4-1.5c0.3-0.4,0.7-0.6,1.2-0.6c0.5,0,0.8,0.2,1,0.6h0V4.8h0.6V10.4z M54.8,8.7V8.1
			c0-0.3-0.1-0.6-0.3-0.8C54.3,7.1,54.1,7,53.8,7c-0.3,0-0.6,0.1-0.8,0.4c-0.2,0.3-0.3,0.6-0.3,1.1c0,0.4,0.1,0.8,0.3,1
			c0.2,0.3,0.4,0.4,0.7,0.4c0.3,0,0.6-0.1,0.7-0.4C54.7,9.4,54.8,9.1,54.8,8.7 M59.8,5.3c-0.1-0.1-0.2-0.1-0.4-0.1
			c-0.4,0-0.6,0.3-0.6,0.8v0.6h0.8v0.5h-0.8v3.3h-0.6V7.1h-0.6V6.6h0.6V6c0-0.4,0.1-0.7,0.3-0.9c0.2-0.2,0.5-0.4,0.8-0.4
			c0.2,0,0.3,0,0.4,0.1V5.3z M62.1,7.2c-0.1-0.1-0.2-0.1-0.4-0.1c-0.2,0-0.4,0.1-0.6,0.4c-0.2,0.3-0.2,0.6-0.2,1v1.9h-0.6V6.6h0.6
			v0.8h0c0.1-0.3,0.2-0.5,0.4-0.6c0.2-0.2,0.3-0.2,0.6-0.2c0.1,0,0.3,0,0.3,0.1V7.2z M65.7,8.5c0,0.6-0.2,1.1-0.5,1.5
			c-0.3,0.4-0.7,0.6-1.3,0.6c-0.5,0-0.9-0.2-1.2-0.5c-0.3-0.4-0.5-0.8-0.5-1.4c0-0.6,0.2-1.1,0.5-1.5c0.3-0.4,0.7-0.6,1.3-0.6
			c0.5,0,0.9,0.2,1.2,0.5C65.6,7.4,65.7,7.9,65.7,8.5 M65.2,8.5c0-0.5-0.1-0.8-0.3-1.1C64.7,7.2,64.4,7,64,7c-0.4,0-0.6,0.1-0.8,0.4
			c-0.2,0.3-0.3,0.6-0.3,1.1c0,0.5,0.1,0.8,0.3,1.1C63.4,9.9,63.7,10,64,10c0.4,0,0.6-0.1,0.8-0.4C65.1,9.4,65.2,9,65.2,8.5
			 M71.5,10.4h-0.6V8.2c0-0.4-0.1-0.7-0.2-0.9C70.6,7.1,70.4,7,70.2,7c-0.2,0-0.4,0.1-0.6,0.4c-0.2,0.2-0.2,0.5-0.2,0.9v2.2h-0.6
			V8.2C68.8,7.4,68.5,7,68,7c-0.2,0-0.4,0.1-0.6,0.3c-0.2,0.2-0.2,0.5-0.2,0.9v2.2h-0.6V6.6h0.6v0.6h0c0.2-0.5,0.6-0.7,1.1-0.7
			c0.2,0,0.4,0.1,0.6,0.2c0.2,0.1,0.3,0.3,0.4,0.6c0.3-0.5,0.6-0.8,1.1-0.8c0.8,0,1.1,0.5,1.1,1.6V10.4z"/>
		<path style="clip-path:url(#SVGID_00000178925143134001383970000013306479454715652754_);fill:#FFFFFF;" d="M34.5,13.9l-2,8h-1
			L30,16c-0.1-0.2-0.1-0.5-0.1-0.8h0c0,0.3-0.1,0.5-0.1,0.8l-1.5,5.8h-1l-2.1-8H26l1.5,6.1c0.1,0.3,0.1,0.5,0.1,0.8h0
			c0-0.2,0.1-0.5,0.2-0.8l1.6-6.1h0.8l1.5,6.2c0.1,0.2,0.1,0.5,0.1,0.7h0c0-0.2,0.1-0.4,0.1-0.8l1.5-6.1H34.5z M36.1,14.3
			c0,0.2-0.1,0.3-0.2,0.4c-0.1,0.1-0.2,0.2-0.4,0.2c-0.2,0-0.3-0.1-0.4-0.2c-0.1-0.1-0.2-0.3-0.2-0.4c0-0.2,0.1-0.3,0.2-0.4
			c0.1-0.1,0.2-0.2,0.4-0.2c0.2,0,0.3,0.1,0.4,0.2C36.1,14,36.1,14.1,36.1,14.3 M36,21.8h-0.8v-5.7H36V21.8z M41.5,21.8h-0.8v-3.2
			c0-1.2-0.4-1.8-1.2-1.8c-0.4,0-0.7,0.2-1,0.5c-0.3,0.3-0.4,0.8-0.4,1.3v3.2h-0.8v-5.7H38v0.9h0c0.4-0.7,0.9-1.1,1.7-1.1
			c0.6,0,1,0.2,1.3,0.6c0.3,0.4,0.4,1,0.4,1.7V21.8z M47.2,21.8h-0.8v-1h0c-0.4,0.7-1,1.1-1.8,1.1c-0.7,0-1.2-0.3-1.6-0.8
			c-0.4-0.5-0.6-1.2-0.6-2.1c0-0.9,0.2-1.7,0.6-2.3c0.4-0.6,1-0.9,1.7-0.9c0.7,0,1.2,0.3,1.5,0.9h0v-3.5h0.8V21.8z M46.4,19.3v-0.8
			c0-0.5-0.1-0.9-0.4-1.2c-0.3-0.3-0.6-0.5-1-0.5c-0.5,0-0.9,0.2-1.2,0.6c-0.3,0.4-0.4,1-0.4,1.7c0,0.7,0.1,1.2,0.4,1.5
			c0.3,0.4,0.6,0.6,1.1,0.6c0.5,0,0.8-0.2,1.1-0.5C46.2,20.3,46.4,19.8,46.4,19.3 M53.3,19c0,0.9-0.2,1.6-0.7,2.2
			c-0.5,0.6-1.1,0.8-1.9,0.8c-0.8,0-1.4-0.3-1.8-0.8c-0.5-0.5-0.7-1.2-0.7-2.1c0-0.9,0.2-1.7,0.7-2.2c0.5-0.5,1.1-0.8,1.9-0.8
			c0.8,0,1.4,0.3,1.8,0.8C53.1,17.3,53.3,18,53.3,19 M52.4,19c0-0.7-0.1-1.3-0.4-1.6c-0.3-0.4-0.7-0.6-1.2-0.6
			c-0.5,0-0.9,0.2-1.3,0.6c-0.3,0.4-0.5,0.9-0.5,1.7c0,0.7,0.2,1.2,0.5,1.6c0.3,0.4,0.7,0.6,1.3,0.6c0.5,0,0.9-0.2,1.2-0.6
			C52.3,20.3,52.4,19.7,52.4,19 M60.8,16.1l-1.5,5.7h-0.9l-1.1-4.1c0-0.1-0.1-0.3-0.1-0.5h0c0,0.1,0,0.3-0.1,0.5L56,21.8h-0.8
			l-1.6-5.7h0.9l1.1,4.3c0,0.1,0.1,0.3,0.1,0.5h0c0-0.1,0-0.3,0.1-0.5l1.2-4.3h0.8l1.1,4.3c0,0.1,0.1,0.3,0.1,0.5h0
			c0-0.2,0-0.3,0.1-0.5l1.1-4.3H60.8z M64.3,20.3c0,0.5-0.2,0.9-0.5,1.2C63.4,21.8,63,22,62.4,22c-0.5,0-0.9-0.1-1.3-0.3v-1
			c0.4,0.4,0.9,0.5,1.3,0.5c0.7,0,1-0.3,1-0.8c0-0.2-0.1-0.4-0.2-0.5c-0.1-0.1-0.4-0.3-0.9-0.5c-0.5-0.2-0.8-0.4-1-0.7
			c-0.2-0.2-0.3-0.6-0.3-1c0-0.5,0.2-0.9,0.5-1.2C62,16.2,62.4,16,63,16c0.4,0,0.8,0.1,1.1,0.3v0.9c-0.3-0.3-0.7-0.4-1.2-0.4
			c-0.3,0-0.5,0.1-0.7,0.2c-0.2,0.1-0.3,0.3-0.3,0.6c0,0.3,0.1,0.4,0.2,0.6c0.1,0.1,0.4,0.3,0.8,0.5c0.5,0.2,0.8,0.5,1,0.7
			C64.2,19.6,64.3,19.9,64.3,20.3"/>
		<path style="clip-path:url(#SVGID_00000178925143134001383970000013306479454715652754_);fill:#FFFFFF;" d="M71.6,19.8
			c0,0.7-0.2,1.2-0.6,1.6c-0.4,0.4-1,0.6-1.7,0.6c-0.3,0-0.6,0-0.9-0.1c-0.3-0.1-0.6-0.2-0.7-0.3v-1.1c0.2,0.2,0.5,0.4,0.8,0.5
			c0.3,0.1,0.6,0.2,0.9,0.2c0.9,0,1.4-0.4,1.4-1.2c0-0.3-0.1-0.6-0.3-0.9c-0.2-0.2-0.6-0.6-1.2-0.9c-0.6-0.4-1-0.7-1.2-1.1
			c-0.2-0.3-0.4-0.7-0.4-1.2c0-0.6,0.2-1.1,0.6-1.5c0.4-0.4,1-0.6,1.6-0.6c0.6,0,1.1,0.1,1.4,0.3v1c-0.4-0.3-0.9-0.5-1.5-0.5
			c-0.4,0-0.7,0.1-1,0.3c-0.3,0.2-0.4,0.5-0.4,0.9c0,0.3,0,0.5,0.1,0.6c0.1,0.2,0.2,0.3,0.4,0.5c0.2,0.2,0.5,0.4,0.9,0.6
			c0.6,0.4,1.1,0.8,1.3,1.1C71.5,19,71.6,19.4,71.6,19.8 M75,21.8c-0.2,0.1-0.5,0.2-0.8,0.2c-0.9,0-1.3-0.6-1.3-1.7v-3.4H72v-0.8
			h0.9v-1.4l0.8-0.3v1.7H75v0.8h-1.3v3.2c0,0.4,0.1,0.7,0.2,0.8c0.1,0.2,0.3,0.2,0.6,0.2c0.2,0,0.4-0.1,0.5-0.2V21.8z M80.7,19
			c0,0.9-0.2,1.6-0.7,2.2c-0.5,0.6-1.1,0.8-1.9,0.8c-0.8,0-1.4-0.3-1.8-0.8c-0.5-0.5-0.7-1.2-0.7-2.1c0-0.9,0.2-1.7,0.7-2.2
			c0.5-0.5,1.1-0.8,1.9-0.8c0.8,0,1.4,0.3,1.8,0.8C80.5,17.3,80.7,18.1,80.7,19 M79.9,19c0-0.7-0.1-1.3-0.4-1.6
			c-0.3-0.4-0.7-0.6-1.2-0.6c-0.5,0-0.9,0.2-1.3,0.6c-0.3,0.4-0.5,0.9-0.5,1.7c0,0.7,0.2,1.2,0.5,1.6c0.3,0.4,0.7,0.6,1.3,0.6
			c0.5,0,0.9-0.2,1.2-0.6C79.7,20.3,79.9,19.7,79.9,19 M84.3,17.1c-0.1-0.1-0.4-0.2-0.6-0.2c-0.4,0-0.7,0.2-0.9,0.6
			c-0.2,0.4-0.3,0.9-0.3,1.5v2.9h-0.8v-5.7h0.8v1.2h0c0.1-0.4,0.3-0.7,0.5-0.9c0.2-0.2,0.5-0.3,0.8-0.3c0.2,0,0.4,0,0.5,0.1V17.1z
			 M89.2,19.2h-3.6c0,0.6,0.2,1.1,0.5,1.5c0.3,0.3,0.7,0.5,1.2,0.5c0.6,0,1.1-0.2,1.6-0.6v0.9c-0.4,0.4-1,0.6-1.8,0.6
			c-0.7,0-1.3-0.3-1.7-0.8c-0.4-0.5-0.6-1.2-0.6-2.2c0-0.6,0.1-1.1,0.3-1.5c0.2-0.5,0.5-0.8,0.9-1.1c0.4-0.3,0.8-0.4,1.2-0.4
			c0.7,0,1.2,0.2,1.6,0.7c0.4,0.5,0.6,1.2,0.6,2V19.2z M88.4,18.4c0-0.5-0.1-0.9-0.3-1.2c-0.2-0.3-0.5-0.4-0.9-0.4
			c-0.4,0-0.7,0.2-1,0.5c-0.3,0.3-0.4,0.7-0.5,1.2H88.4z"/>
	</g>
</g>
</svg>
